<svg width="20" height="20" viewBox="0 0 20 20" fill="none" xmlns="http://www.w3.org/2000/svg">
<g clip-path="url(#clip0_6801_108)">
<path d="M10.5088 4.22209C11.7875 5.87546 12.4701 7.91433 12.4453 10.0065V10.5059L12.8672 10.7673C13.4123 11.1034 13.8188 11.6247 14.0127 12.2362C13.8425 12.1085 13.6644 11.9918 13.4795 11.8866L12.3545 11.2432L12.1524 12.5417C12.1348 12.6565 12.1114 12.7702 12.082 12.8825H8.9297C8.88283 12.7356 8.84474 12.5887 8.80958 12.436L8.5547 11.2609L7.51759 11.8484C7.34433 11.9471 7.17704 12.056 7.01662 12.1745C7.21428 11.5701 7.61232 11.0517 8.14455 10.7056L8.54591 10.4442V9.98002C8.55315 7.89638 9.24395 5.87301 10.5117 4.22209H10.5088ZM10.5117 3C10.446 3.00016 10.3825 3.02416 10.333 3.06757L10.3067 3.09107C8.61727 4.98568 7.67917 7.4356 7.66994 9.97709C6.95304 10.4435 6.42238 11.1476 6.17069 11.9665C5.919 12.7854 5.96229 13.667 6.29298 14.4571C6.64135 13.6856 7.22371 13.0441 7.95705 12.624C8.03059 12.9434 8.12854 13.2567 8.25001 13.5611C8.26542 13.6196 8.29957 13.6714 8.34721 13.7086C8.39485 13.7457 8.45334 13.7662 8.51369 13.7667H12.5801C12.6621 13.7667 12.7442 13.6874 12.7852 13.564C12.9037 13.2747 12.9864 12.9718 13.0313 12.6622C13.766 13.0805 14.3488 13.7226 14.6953 14.4953C15.046 13.7091 15.1003 12.8219 14.8481 11.9986C14.596 11.1753 14.0545 10.4716 13.3242 10.0182C13.3532 7.46173 12.4201 4.98825 10.711 3.09107C10.6855 3.06254 10.6544 3.03968 10.6195 3.02399C10.5847 3.00831 10.547 3.00013 10.5088 3H10.5117Z" fill="#4EA8DE"/>
<path d="M10.5088 9.7333C10.2837 9.73329 10.0637 9.66649 9.87652 9.5413C9.6893 9.41612 9.54323 9.23816 9.45672 9.02986C9.37022 8.82156 9.34714 8.59224 9.3904 8.3708C9.43367 8.14937 9.54134 7.94574 9.69985 7.78557C9.85835 7.62541 10.0606 7.51588 10.2811 7.4708C10.5016 7.42571 10.7304 7.44709 10.9388 7.53223C11.1472 7.61738 11.3258 7.76248 11.4521 7.94924C11.5784 8.13601 11.6467 8.35608 11.6484 8.58171V8.58171C11.6519 8.72794 11.6266 8.87342 11.5741 9.00985C11.5215 9.14628 11.4426 9.27099 11.3419 9.37684C11.2413 9.48269 11.1208 9.56762 10.9874 9.62676C10.854 9.68591 10.7102 9.71812 10.5644 9.72155C10.546 9.72451 10.5272 9.72451 10.5088 9.72155V9.7333Z" fill="#4EA8DE"/>
<path d="M12.0937 14.4983C12.0204 14.496 11.9474 14.5083 11.8789 14.5347C11.8105 14.561 11.7479 14.6008 11.695 14.6517C11.642 14.7026 11.5998 14.7636 11.5706 14.8311C11.5415 14.8986 11.5261 14.9712 11.5254 15.0447V16.778C11.5254 16.9292 11.5853 17.0741 11.6919 17.181C11.7984 17.2879 11.943 17.3479 12.0937 17.3479C12.2445 17.3479 12.3891 17.2879 12.4956 17.181C12.6022 17.0741 12.6621 16.9292 12.6621 16.778V15.0682C12.6645 14.995 12.6522 14.922 12.6261 14.8535C12.6001 14.785 12.5607 14.7225 12.5102 14.6694C12.4598 14.6164 12.3993 14.5739 12.3323 14.5445C12.2653 14.5152 12.1932 14.4995 12.1201 14.4983H12.0937Z" fill="#5E60CE"/>
<path d="M8.92969 14.4983C8.85514 14.4944 8.78056 14.5055 8.71038 14.531C8.64021 14.5566 8.57587 14.596 8.5212 14.647C8.46654 14.698 8.42266 14.7595 8.39217 14.8278C8.36168 14.8961 8.34522 14.9699 8.34375 15.0448V16.778C8.34375 16.9292 8.40363 17.0741 8.51022 17.181C8.61681 17.2879 8.76137 17.3479 8.91211 17.3479C9.06285 17.3479 9.20741 17.2879 9.314 17.181C9.42059 17.0741 9.48047 16.9292 9.48047 16.778V15.0683C9.48281 14.995 9.47059 14.922 9.44451 14.8535C9.41843 14.785 9.37901 14.7225 9.32857 14.6694C9.27812 14.6164 9.21765 14.5739 9.15067 14.5446C9.0837 14.5152 9.01157 14.4995 8.93848 14.4983H8.92969Z" fill="#5E60CE"/>
<path d="M10.4678 14.4982C10.3947 14.4966 10.322 14.5095 10.2538 14.5361C10.1857 14.5627 10.1235 14.6026 10.0707 14.6533C10.0179 14.7041 9.97563 14.7647 9.94624 14.8319C9.91685 14.899 9.90094 14.9713 9.89941 15.0446V17.433C9.89941 17.5841 9.95929 17.7291 10.0659 17.8359C10.1725 17.9428 10.317 18.0029 10.4678 18.0029C10.6185 18.0029 10.7631 17.9428 10.8697 17.8359C10.9763 17.7291 11.0361 17.5841 11.0361 17.433V15.0828C11.0385 15.0095 11.0262 14.9365 11.0002 14.868C10.9741 14.7996 10.9347 14.737 10.8842 14.6839C10.8338 14.6309 10.7733 14.5884 10.7063 14.5591C10.6394 14.5297 10.5672 14.514 10.4941 14.5129L10.4678 14.4982Z" fill="#5E60CE"/>
</g>
<defs>
<clipPath id="clip0_6801_108">
<rect width="9" height="15" fill="white" transform="translate(6 3)"/>
</clipPath>
</defs>
</svg>
